# xmcd CD database file
#
# Track frame offsets:
#	150
#	24753
#	48329
#
# Disc length: 914 seconds
#
# Revision: 1
# Processed by: cddbd v1.5.2PL0 Copyright (c) Steve Scherf et al.
# Submitted via: CDex 1.40Beta8
#
DISCID=16039003
DTITLE=Brave Staker - We are the One
DYEAR=1900
DGENRE=Heavy Metal
TTITLE0=We are the One
TTITLE1=Break the Wall
TTITLE2=Paradise
EXTD=
EXTT0=
EXTT1=
EXTT2=
PLAYORDER=
